<?xml version="1.0" encoding="UTF-8" standalone="no"?>
<!-- Generator: Adobe Illustrator 16.0.0, SVG Export Plug-In . SVG Version: 6.00 Build 0)  -->

<svg
   xmlns:dc="http://purl.org/dc/elements/1.1/"
   xmlns:cc="http://creativecommons.org/ns#"
   xmlns:rdf="http://www.w3.org/1999/02/22-rdf-syntax-ns#"
   xmlns:svg="http://www.w3.org/2000/svg"
   xmlns="http://www.w3.org/2000/svg"
   xmlns:sodipodi="http://sodipodi.sourceforge.net/DTD/sodipodi-0.dtd"
   xmlns:inkscape="http://www.inkscape.org/namespaces/inkscape"
   version="1.1"
   id="Capa_1"
   x="0px"
   y="0px"
   width="16"
   height="16"
   viewBox="0 0 612 612"
   style="enable-background: new 0 0 612 612"
   xml:space="preserve"
   sodipodi:docname="save.svg"
   inkscape:version="0.92.2 (5c3e80d, 2017-08-06)"><metadata
     id="metadata41"><rdf:RDF><cc:Work
         rdf:about=""><dc:format>image/svg+xml</dc:format><dc:type
           rdf:resource="http://purl.org/dc/dcmitype/StillImage" /></cc:Work></rdf:RDF></metadata><defs
     id="defs39" /><sodipodi:namedview
     pagecolor="#ffffff"
     bordercolor="#666666"
     borderopacity="1"
     objecttolerance="10"
     gridtolerance="10"
     guidetolerance="10"
     inkscape:pageopacity="0"
     inkscape:pageshadow="2"
     inkscape:window-width="1920"
     inkscape:window-height="986"
     id="namedview37"
     showgrid="false"
     inkscape:zoom="14.75"
     inkscape:cx="8"
     inkscape:cy="8"
     inkscape:window-x="-11"
     inkscape:window-y="-11"
     inkscape:window-maximized="1"
     inkscape:current-layer="Capa_1" /><g
     id="g4"
     transform="matrix(0.8,0,0,0.8,45.9,45.9)"><path
       d="M 604.7 143.8 L 472.1 18.4 c -3.7 -3.5 -8.9 -5.7 -15.8 -5.7 H 22.2 C 9.7 12.7 0 22.4 0 35 v 542 c 0 12.5 9.7 22.2 22.2 22.2 h 567.5 c 12.5 0 22.2 -9.7 22.2 -22.2 V 160.4 c 0 -6.9 -2.7 -12.2 -7.3 -16.6 z M 271 57.6 h 75.2 v 126.6 h -75.2 z M 567.5 554.4 H 44.5 V 57.6 h 92.2 V 234 H 398.4 V 57.6 h 49.8 L 567.5 169.3 V 554.4 Z"
       id="path2"
       inkscape:connector-curvature="0"
       style="fill: #c5c5c5" /></g><g
     id="g6"
     transform="matrix(0.8,0,0,0.8,45.9,45.9)" /><g
     id="g8"
     transform="matrix(0.8,0,0,0.8,45.9,45.9)" /><g
     id="g10"
     transform="matrix(0.8,0,0,0.8,45.9,45.9)" /><g
     id="g12"
     transform="matrix(0.8,0,0,0.8,45.9,45.9)" /><g
     id="g14"
     transform="matrix(0.8,0,0,0.8,45.9,45.9)" /><g
     id="g16"
     transform="matrix(0.8,0,0,0.8,45.9,45.9)" /><g
     id="g18"
     transform="matrix(0.8,0,0,0.8,45.9,45.9)" /><g
     id="g20"
     transform="matrix(0.8,0,0,0.8,45.9,45.9)" /><g
     id="g22"
     transform="matrix(0.8,0,0,0.8,45.9,45.9)" /><g
     id="g24"
     transform="matrix(0.8,0,0,0.8,45.9,45.9)" /><g
     id="g26"
     transform="matrix(0.8,0,0,0.8,45.9,45.9)" /><g
     id="g28"
     transform="matrix(0.8,0,0,0.8,45.9,45.9)" /><g
     id="g30"
     transform="matrix(0.8,0,0,0.8,45.9,45.9)" /><g
     id="g32"
     transform="matrix(0.8,0,0,0.8,45.9,45.9)" /><g
     id="g34"
     transform="matrix(0.8,0,0,0.8,45.9,45.9)" /></svg>